<svg xmlns="http://www.w3.org/2000/svg" width="479pt" height="479pt" viewBox="0 -91 479.979 479"><path fill="#ebebeb" d="m375.988281 136.488281-24 8h-272l-16-8 56-64 8-8h176l16 8zm0 0"/><path fill="#e4e4e2" d="m119.988281 72.488281-56 64h288l-56-64zm0 0"/><path fill="#b9b9b9" d="m239.988281 40.488281v8h-40l-8-8 8-32h32zm0 0"/><path fill="#fbb540" d="m319.988281 72.488281h-200v-16c0-8.835937 7.164063-16 16-16h168c8.835938 0 16 7.164063 16 16zm0 0"/><path fill="#fbb540" d="m199.988281 64.488281h32v88h-32zm0 0"/><path fill="#ebebeb" d="m183.988281 72.488281h16v64h-16zm0 0"/><path fill="#fbb540" d="m455.988281 224.488281h-432v-64c0-13.253906 10.746094-24 24-24h328l80 24zm0 0"/><path fill="#e4e4e2" d="m23.988281 216.488281h432c8.835938 0 16 7.164063 16 16 0 8.835938-7.164062 16-16 16h-432c-8.835937 0-16-7.164062-16-16 0-8.835937 7.164063-16 16-16zm0 0"/><g fill="#6f7478"><path d="m167.988281 160.488281h16v16h-16zm0 0"/><path d="m183.988281 176.488281h16v16h-16zm0 0"/><path d="m199.988281 160.488281h16v16h-16zm0 0"/><path d="m215.988281 176.488281h16v16h-16zm0 0"/><path d="m231.988281 160.488281h16v16h-16zm0 0"/><path d="m247.988281 176.488281h16v16h-16zm0 0"/><path d="m263.988281 160.488281h16v16h-16zm0 0"/><path d="m279.988281 176.488281h16v16h-16zm0 0"/><path d="m295.988281 160.488281h16v16h-16zm0 0"/></g><path fill="#fd9226" d="m455.988281 184.488281h-24c-4.417969 0-8-3.582031-8-8v-25.664062l32 9.664062zm0 0"/><path fill="#fd9226" d="m47.988281 136.488281h16v24c0 8.835938-7.164062 16-16 16h-24v-16c0-13.253906 10.746094-24 24-24zm0 0"/><path fill="#ebebeb" d="m135.988281 248.488281c0 22.09375-17.90625 40-40 40-22.089843 0-40-17.90625-40-40 0-22.089843 17.910157-40 40-40 22.09375 0 40 17.910157 40 40zm0 0"/><path fill="#ebebeb" d="m423.988281 248.488281c0 22.09375-17.90625 40-40 40-22.089843 0-40-17.90625-40-40 0-22.089843 17.910157-40 40-40 22.09375 0 40 17.910157 40 40zm0 0"/><path fill="#a8a8a8" d="m95.988281 296.488281c-26.507812 0-48-21.488281-48-48 0-26.507812 21.492188-48 48-48 26.511719 0 48 21.492188 48 48-.023437 26.5-21.5 47.976563-48 48zm0-80c-17.671875 0-32 14.328125-32 32 0 17.675781 14.328125 32 32 32 17.675781 0 32-14.324219 32-32 0-17.671875-14.324219-32-32-32zm0 0"/><path fill="#d9d9d9" d="m95.988281 264.488281c-8.835937 0-16-7.164062-16-16 0-8.835937 7.164063-16 16-16 8.835938 0 16 7.164063 16 16 0 8.835938-7.164062 16-16 16zm0-16"/><path fill="#a8a8a8" d="m383.988281 296.488281c-26.507812 0-48-21.488281-48-48 0-26.507812 21.492188-48 48-48 26.511719 0 48 21.492188 48 48-.023437 26.5-21.5 47.976563-48 48zm0-80c-17.671875 0-32 14.328125-32 32 0 17.675781 14.328125 32 32 32 17.675781 0 32-14.324219 32-32 0-17.671875-14.324219-32-32-32zm0 0"/><path fill="#d9d9d9" d="m383.988281 264.488281c-8.835937 0-16-7.164062-16-16 0-8.835937 7.164063-16 16-16 8.835938 0 16 7.164063 16 16 0 8.835938-7.164062 16-16 16zm0-16"/><path d="m111.988281 248.488281c0 8.835938-7.164062 16-16 16-8.835937 0-16-7.164062-16-16 0-8.835937 7.164063-16 16-16 8.835938 0 16 7.164063 16 16zm0 0"/><path d="m399.988281 248.488281c0 8.835938-7.164062 16-16 16-8.835937 0-16-7.164062-16-16 0-8.835937 7.164063-16 16-16 8.835938 0 16 7.164063 16 16zm0 0"/><path d="m463.988281 209.960938v-49.472657c0-3.53125-2.316406-6.648437-5.703125-7.664062l-31.097656-9.335938c-.078125 0-.175781-.046875-.253906-.078125l-46.398438-13.921875-52.546875-60.007812v-12.992188c0-13.253906-10.742187-24-24-24h-57.75l-6.488281-25.941406c-.890625-3.5625-4.089844-6.058594-7.761719-6.058594h-32c-3.667969 0-6.867187 2.496094-7.757812 6.058594l-6.488281 25.941406h-49.753907c-13.253906 0-24 10.746094-24 24v12.992188l-51.632812 59.007812h-12.367188c-17.671875 0-32 14.328125-32 32v49.472657c-11.011719 3.878906-17.621093 15.136718-15.640625 26.640624 1.976563 11.507813 11.964844 19.910157 23.640625 19.886719h24.722657c3.882812 23.085938 23.867187 39.992188 47.277343 39.992188 23.410157 0 43.398438-16.90625 47.28125-39.992188h193.441407c3.882812 23.085938 23.867187 39.992188 47.277343 39.992188 23.410157 0 43.398438-16.90625 47.28125-39.992188h24.71875c11.675781.023438 21.664063-8.378906 23.644531-19.886719 1.976563-11.503906-4.632812-22.761718-15.644531-26.640624zm-32-48.320313 16 4.800781v10.046875h-16zm-73.597656-33.152344h-118.402344v-48h76.367188zm-152.152344-112h19.503907l4 16h-27.503907zm-78.25 40c0-4.417969 3.582031-8 8-8h168c4.417969 0 8 3.582031 8 8v8h-184zm96 24v48h-16v-48zm-100.367187 0h68.367187v48h-110.398437zm-91.632813 80c0-8.835937 7.164063-16 16-16h8v16c0 4.417969-3.582031 8-8 8h-16zm0 24h16c13.257813 0 24-10.742187 24-24v-16h302.824219l41.175781 12.351563v19.648437c0 8.835938 7.164063 16 16 16h16v16h-37.519531c-16.042969-10.664062-36.917969-10.664062-52.960938 0h-235.039062c-16.042969-10.664062-36.917969-10.664062-52.960938 0h-37.519531zm16.722657 56h-24.722657c-4.417969 0-8-3.582031-8-8s3.582031-8 8-8h30.496094c-2.867187 4.945313-4.824219 10.363281-5.773437 16zm47.277343 40c-17.671875 0-32-14.324219-32-32 0-17.671875 14.328125-32 32-32 17.675781 0 32 14.328125 32 32 0 17.675781-14.324219 32-32 32zm240.722657-40h-193.441407c-.953125-5.636719-2.910156-11.054687-5.777343-16h204.992187c-2.867187 4.945313-4.824219 10.363281-5.773437 16zm47.277343 40c-17.671875 0-32-14.324219-32-32 0-17.671875 14.328125-32 32-32 17.675781 0 32 14.328125 32 32 0 17.675781-14.324219 32-32 32zm72-40h-24.71875c-.953125-5.636719-2.910156-11.054687-5.777343-16h30.496093c4.417969 0 8 3.582031 8 8s-3.582031 8-8 8zm0 0"/><path d="m167.988281 160.488281h16v16h-16zm0 0"/><path d="m183.988281 176.488281h16v16h-16zm0 0"/><path d="m199.988281 160.488281h16v16h-16zm0 0"/><path d="m215.988281 176.488281h16v16h-16zm0 0"/><path d="m231.988281 160.488281h16v16h-16zm0 0"/><path d="m247.988281 176.488281h16v16h-16zm0 0"/><path d="m263.988281 160.488281h16v16h-16zm0 0"/><path d="m279.988281 176.488281h16v16h-16zm0 0"/><path d="m295.988281 160.488281h16v16h-16zm0 0"/></svg>